<svg width="538" height="75" viewBox="0 0 538 75" fill="none" xmlns="http://www.w3.org/2000/svg">
<path d="M50.244 31.5417L44.0467 50.962L57.1881 50.962L56.1728 56.0505L42.3778 56.0505L36.7291 73.6151L31.5473 73.6151L37.1959 56.0505L18.3125 56.0505L12.6638 73.6151L7.48196 73.6151L13.1307 56.0505L0.164311 56.0505L1.17967 50.962L14.7879 50.962L20.9851 31.5417L8.01881 31.5417L8.94082 26.4532L22.6424 26.4532L28.2911 8.88856L33.4729 8.88856L27.8243 26.4532L46.6143 26.4532L52.263 8.88856L57.5382 8.88856L51.8896 26.4532L64.9376 26.4532L63.9222 31.5417L50.2206 31.5417L50.244 31.5417ZM45.0621 31.5417L26.1787 31.5417L19.9814 50.962L38.7715 50.962L45.0621 31.5417V31.5417ZM204.346 24.6092C209.843 24.6092 214.114 26.0097 217.172 28.8107C220.23 31.6117 221.759 35.4864 221.759 40.4115C221.759 42.1388 221.572 43.9828 221.199 45.9552L215.643 73.6035L209.073 73.6035L214.628 45.8618C214.931 44.1346 215.095 42.6524 215.095 41.4269C215.095 37.914 214.033 35.218 211.897 33.339C209.761 31.46 206.633 30.5147 202.502 30.5147C197.262 30.5147 192.932 31.9502 189.536 34.8095C186.139 37.6806 183.852 41.9171 182.685 47.5191L177.503 73.5918L170.932 73.5918L180.561 24.9477L186.851 24.9477L185.276 32.7205C189.909 27.2935 196.258 24.5859 204.346 24.5859L204.346 24.6092ZM283.976 24.9827L274.254 73.6268L267.964 73.6268L269.539 65.9474C267.193 68.5383 264.416 70.5457 261.206 71.9579C257.997 73.37 254.449 74.082 250.563 74.082C246.431 74.082 242.755 73.2533 239.545 71.5844C236.336 69.9155 233.838 67.5346 232.041 64.4185C230.255 61.3024 229.357 57.6494 229.357 53.4596C229.357 47.9743 230.547 43.0375 232.916 38.6609C235.297 34.2844 238.577 30.8414 242.778 28.3556C246.98 25.858 251.671 24.6092 256.853 24.6092C261.486 24.6092 265.373 25.5195 268.512 27.3402C271.663 29.1608 273.939 31.7634 275.363 35.1597L277.394 24.9827L283.965 24.9827L283.976 24.9827ZM251.94 68.2582C255.954 68.2582 259.561 67.2895 262.77 65.3405C265.98 63.4031 268.489 60.6838 270.31 57.2059C272.13 53.728 273.041 49.8183 273.041 45.5117C273.041 40.7617 271.64 37.0503 268.827 34.366C266.015 31.6818 262.082 30.3396 257.028 30.3396C253.013 30.3396 249.407 31.3316 246.198 33.304C242.988 35.2764 240.467 38.0074 238.658 41.4853C236.838 44.9632 235.927 48.8729 235.927 53.1795C235.927 57.9295 237.328 61.6292 240.14 64.2785C242.953 66.9277 246.886 68.2582 251.94 68.2582V68.2582ZM85.7117 21.0963L64.9726 21.0963L67.4702 8.88856L123.945 8.88857L121.448 21.0963L100.802 21.0963L90.2516 73.6268L75.2546 73.6268L85.7117 21.0963V21.0963ZM169.193 23.8739L159.285 73.6268L145.583 73.6268L146.505 68.725C142.374 72.4831 137.274 74.3621 131.228 74.3621C127.342 74.3621 123.759 73.4634 120.491 71.6778C117.223 69.8921 114.609 67.3129 112.671 63.9517C110.722 60.5905 109.754 56.634 109.754 52.0707C109.754 46.5854 110.967 41.637 113.407 37.2254C115.846 32.8138 119.16 29.3592 123.362 26.8734C127.563 24.3758 132.185 23.127 137.25 23.127C144.906 23.127 150.298 25.6246 153.449 30.6197L154.745 23.8739L169.182 23.8739L169.193 23.8739ZM135.675 62.4344C138.511 62.4344 141.043 61.7459 143.261 60.357C145.478 58.9682 147.205 57.0425 148.443 54.58C149.68 52.1174 150.298 49.2814 150.298 46.0719C150.298 42.6874 149.294 40.0031 147.287 38.0307C145.28 36.0583 142.49 35.078 138.907 35.078C136.071 35.078 133.539 35.7665 131.321 37.1554C129.104 38.5442 127.377 40.4699 126.14 42.9325C124.902 45.395 124.284 48.231 124.284 51.4405C124.284 54.8367 125.288 57.5093 127.295 59.4817C129.302 61.4541 132.092 62.4461 135.675 62.4461L135.675 62.4344ZM150.858 4.17354L166.777 4.17354L148.629 17.49L136.97 17.49L150.858 4.17354V4.17354ZM372.861 8.88858L359.988 73.6151L345.913 73.6151L353.499 35.148L328.781 66.776L322.117 66.776L308.788 34.7862L301.016 73.6268L286.941 73.6268L299.907 8.90024L312.126 8.90024L328.325 49.223L359.988 8.90025L372.861 8.90025L372.861 8.88858ZM380.051 23.874L394.406 23.874L384.497 73.6268L370.154 73.6268L380.062 23.874L380.051 23.874ZM393.846 4.17355L409.765 4.17355L391.616 17.49L379.957 17.49L393.846 4.17355ZM457.977 5.00219L444.275 73.6151L430.574 73.6151L431.589 68.62C427.388 72.4481 422.299 74.3504 416.312 74.3504C412.426 74.3504 408.843 73.4517 405.575 71.6661C402.307 69.8805 399.693 67.3012 397.755 63.94C395.806 60.5788 394.838 56.6224 394.838 52.0591C394.838 46.5738 396.063 41.6253 398.491 37.2137C400.93 32.8022 404.244 29.3476 408.446 26.8617C412.647 24.3641 417.269 23.1154 422.334 23.1154C425.975 23.1154 429.173 23.7339 431.916 24.971C434.659 26.2081 436.841 28.0288 438.44 30.4213L443.528 4.99051L457.965 4.99051L457.977 5.00219ZM420.759 62.4228C423.595 62.4228 426.127 61.7342 428.345 60.3454C430.562 58.9565 432.289 57.0309 433.527 54.5683C434.764 52.1058 435.382 49.2697 435.382 46.0603C435.382 42.6757 434.378 39.9914 432.371 38.019C430.364 36.0467 427.574 35.0663 423.991 35.0663C421.155 35.0663 418.623 35.7549 416.405 37.1437C414.188 38.5326 412.461 40.4582 411.224 42.9208C409.986 45.3833 409.368 48.2194 409.368 51.4288C409.368 54.8251 410.372 57.4977 412.379 59.4701C414.386 61.4424 417.176 62.4345 420.759 62.4345L420.759 62.4228ZM463.322 23.8623L477.677 23.8623L467.769 73.6151L453.414 73.6151L463.322 23.8623V23.8623ZM472.951 16.9298C470.476 16.9298 468.457 16.2062 466.882 14.759C465.306 13.3118 464.524 11.5379 464.524 9.43711C464.524 6.97456 465.4 4.92049 467.162 3.28657C468.924 1.65265 471.223 0.83569 474.059 0.835691C476.592 0.835691 478.646 1.52427 480.21 2.9131C481.786 4.30193 482.567 6.00588 482.567 8.04828C482.567 10.6976 481.669 12.845 479.883 14.4789C478.098 16.1128 475.775 16.9298 472.939 16.9298L472.951 16.9298ZM537.362 23.8623L527.454 73.6151L513.752 73.6151L514.674 68.7134C510.542 72.4714 505.442 74.3504 499.397 74.3504C495.51 74.3504 491.927 73.4518 488.66 71.6661C485.392 69.8805 482.778 67.3012 480.84 63.94C478.891 60.5788 477.922 56.6224 477.922 52.0591C477.922 46.5738 479.136 41.6253 481.575 37.2137C484.015 32.8022 487.329 29.3476 491.531 26.8617C495.732 24.3641 500.354 23.1154 505.419 23.1154C513.075 23.1154 518.467 25.6129 521.618 30.608L522.914 23.8623L537.35 23.8623L537.362 23.8623ZM503.843 62.4228C506.679 62.4228 509.212 61.7342 511.429 60.3454C513.647 58.9566 515.386 57.0309 516.611 54.5683C517.848 52.1058 518.467 49.2697 518.467 46.0603C518.467 42.6757 517.463 39.9914 515.456 38.019C513.449 36.0467 510.659 35.0663 507.076 35.0663C504.24 35.0663 501.708 35.7549 499.49 37.1437C497.273 38.5326 495.545 40.4582 494.308 42.9208C493.071 45.3833 492.453 48.2194 492.453 51.4288C492.453 54.8251 493.456 57.4977 495.464 59.4701C497.471 61.4424 500.26 62.4345 503.843 62.4345L503.843 62.4228Z" fill="#007045"/>
</svg>
